<?xml version="1.0" encoding="UTF-8"?>
<!DOCTYPE svg PUBLIC "-//W3C//DTD SVG 1.1//EN" "http://www.w3.org/Graphics/SVG/1.1/DTD/svg11.dtd">
<!-- Creator: CorelDRAW 2019 (64-Bit) -->
<svg xmlns="http://www.w3.org/2000/svg" xml:space="preserve" width="53px" height="90px" version="1.1" style="shape-rendering:geometricPrecision; text-rendering:geometricPrecision; image-rendering:optimizeQuality; fill-rule:evenodd; clip-rule:evenodd"
viewBox="0 0 53 90.891"
 xmlns:xlink="http://www.w3.org/1999/xlink"
 aria-hidden="true"
 focusable="false"
 data-prefix="fab"
 data-icon="linkedin-in"
 role="img">
 <defs>
  <style type="text/css">
   <![CDATA[
    .fil0 {fill:#0274B3}
    .fil1 {fill:white}
   ]]>
  </style>
 </defs>
 <g id="Capa_x0020_1">
  <metadata id="CorelCorpID_0Corel-Layer"/>
  <rect class="fil0" x="-0.716" y="0.922" width="52.999" height="90.888"/>
  <g id="_2633903969728">
   <path class="fil1" d="M19.109 58.451l-5.011 0 0 -16.136 5.011 0 0 16.136zm-2.508 -18.338c-1.602,0 -2.902,-1.326 -2.902,-2.929 0,-1.602 1.299,-2.902 2.902,-2.902 1.602,0 2.902,1.3 2.902,2.902 0,1.603 -1.3,2.929 -2.902,2.929l0 0zm21.262 18.338l-5 0 0 -7.855c0,-1.872 -0.038,-4.273 -2.605,-4.273 -2.606,0 -3.005,2.034 -3.005,4.138l0 7.99 -5.005 0 0 -16.136 4.806 0 0 2.201 0.07 0c0.669,-1.268 2.303,-2.606 4.741,-2.606 5.071,0 6.003,3.339 6.003,7.677l0 8.864 -0.005 0z"/>
  </g>
 </g>
</svg>
