<?xml version="1.0" encoding="UTF-8"?>
<!DOCTYPE svg PUBLIC "-//W3C//DTD SVG 1.1//EN" "http://www.w3.org/Graphics/SVG/1.1/DTD/svg11.dtd">
<!-- Creator: CorelDRAW 2019 (64-Bit) -->
<svg xmlns="http://www.w3.org/2000/svg" xml:space="preserve" width="210px" height="210px" version="1.1" style="shape-rendering:geometricPrecision; text-rendering:geometricPrecision; image-rendering:optimizeQuality; fill-rule:evenodd; clip-rule:evenodd"
viewBox="0 0 210 210"
 xmlns:xlink="http://www.w3.org/1999/xlink">
 <defs>
  <style type="text/css">
   <![CDATA[
    .fil0 {fill:white}
   ]]>
  </style>
 </defs>
 <g id="Capa_x0020_1">
  <metadata id="CorelCorpID_0Corel-Layer"/>
  <path class="fil0" d="M58.04 94.44c12.57,24.7 32.82,44.86 57.52,57.52l19.2 -19.2c2.36,-2.36 5.85,-3.15 8.9,-2.1 9.78,3.23 20.34,4.98 31.16,4.98 4.8,0 8.73,3.92 8.73,8.72l0 30.47c0,4.8 -3.93,8.72 -8.73,8.72 -81.95,0 -148.37,-66.42 -148.37,-148.37 0,-4.8 3.93,-8.73 8.73,-8.73l30.54 0c4.8,0 8.73,3.92 8.73,8.72 0,10.91 1.75,21.39 4.98,31.16 0.96,3.06 0.26,6.46 -2.18,8.91l-19.21 19.2 0 0z"/>
 </g>
</svg>
