<?xml version="1.0" encoding="UTF-8"?>
<!DOCTYPE svg PUBLIC "-//W3C//DTD SVG 1.1//EN" "http://www.w3.org/Graphics/SVG/1.1/DTD/svg11.dtd">
<!-- Creator: CorelDRAW 2019 (64-Bit) -->
<svg xmlns="http://www.w3.org/2000/svg" xml:space="preserve" width="53px" height="90px" version="1.1" style="shape-rendering:geometricPrecision; text-rendering:geometricPrecision; image-rendering:optimizeQuality; fill-rule:evenodd; clip-rule:evenodd"
viewBox="0 0 53 90.891"
 xmlns:xlink="http://www.w3.org/1999/xlink"
 aria-hidden="true"
 focusable="false"
 data-prefix="fab"
 data-icon="twitter"
 role="img">
 <defs>
  <style type="text/css">
   <![CDATA[
    .fil0 {fill:#00ACEE}
    .fil1 {fill:white}
   ]]>
  </style>
 </defs>
 <g id="Capa_x0020_1">
  <metadata id="CorelCorpID_0Corel-Layer"/>
  <rect class="fil0" x="-0.716" y="0.922" width="52.999" height="90.888"/>
  <g id="_2633904000832">
   <path class="fil1" d="M36.951 40.64c0.017,0.25 0.017,0.5 0.017,0.749 0,7.618 -5.797,16.395 -16.393,16.395 -3.265,0 -6.298,-0.946 -8.849,-2.587 0.464,0.053 0.91,0.071 1.392,0.071 2.693,0 5.173,-0.91 7.153,-2.462 -2.533,-0.053 -4.656,-1.712 -5.387,-3.996 0.357,0.054 0.714,0.09 1.088,0.09 0.517,0 1.035,-0.072 1.516,-0.197 -2.64,-0.535 -4.62,-2.854 -4.62,-5.655l0 -0.071c0.767,0.428 1.659,0.696 2.605,0.731 -1.552,-1.034 -2.569,-2.8 -2.569,-4.798 0,-1.071 0.285,-2.052 0.785,-2.908 2.836,3.497 7.099,5.78 11.88,6.03 -0.089,-0.429 -0.143,-0.874 -0.143,-1.32 0,-3.176 2.569,-5.762 5.763,-5.762 1.658,0 3.157,0.695 4.209,1.819 1.303,-0.249 2.552,-0.731 3.657,-1.391 -0.428,1.338 -1.338,2.462 -2.533,3.175 1.16,-0.125 2.284,-0.446 3.318,-0.892 -0.785,1.142 -1.766,2.159 -2.889,2.979l0 0z"/>
  </g>
 </g>
</svg>
