<?xml version="1.0" encoding="UTF-8"?>
<!DOCTYPE svg PUBLIC "-//W3C//DTD SVG 1.1//EN" "http://www.w3.org/Graphics/SVG/1.1/DTD/svg11.dtd">
<!-- Creator: CorelDRAW 2019 (64-Bit) -->
<svg xmlns="http://www.w3.org/2000/svg" xml:space="preserve" width="53px" height="90px" version="1.1" style="shape-rendering:geometricPrecision; text-rendering:geometricPrecision; image-rendering:optimizeQuality; fill-rule:evenodd; clip-rule:evenodd"
viewBox="0 0 53 90.891"
 xmlns:xlink="http://www.w3.org/1999/xlink"
 aria-hidden="true"
 focusable="false"
 data-prefix="fab"
 data-icon="youtube"
 role="img">
 <defs>
  <style type="text/css">
   <![CDATA[
    .fil1 {fill:#FEFEFE}
    .fil0 {fill:red}
   ]]>
  </style>
 </defs>
 <g id="Capa_x0020_1">
  <metadata id="CorelCorpID_0Corel-Layer"/>
  <rect class="fil0" x="-0.716" y="0.922" width="52.999" height="90.888"/>
  <g id="_2633904010720">
   <path class="fil1" d="M39.518 39.442c-0.33,-1.241 -1.301,-2.219 -2.534,-2.551 -2.236,-0.603 -11.201,-0.603 -11.201,-0.603 0,0 -8.964,0 -11.2,0.603 -1.233,0.332 -2.205,1.31 -2.535,2.551 -0.598,2.25 -0.598,6.945 -0.598,6.945 0,0 0,4.694 0.598,6.945 0.33,1.241 1.302,2.178 2.535,2.51 2.236,0.603 11.2,0.603 11.2,0.603 0,0 8.965,0 11.201,-0.603 1.233,-0.332 2.204,-1.269 2.534,-2.51 0.599,-2.251 0.599,-6.945 0.599,-6.945 0,0 0,-4.695 -0.599,-6.945l0 0zm-16.667 11.207l0 -8.525 7.493 4.263 -7.493 4.262 0 0z"/>
  </g>
 </g>
</svg>
